<?xml version="1.0" encoding="UTF-8"?>
<svg width="140px" height="36px" viewBox="0 0 140 36" version="1.1" xmlns="http://www.w3.org/2000/svg" xmlns:xlink="http://www.w3.org/1999/xlink">
    <!-- Generator: Sketch 56.2 (81672) - https://sketch.com -->
    <title>Path</title>
    <desc>Created with Sketch.</desc>
    <defs>
        <linearGradient x1="50.0297125%" y1="-0.000126903553%" x2="50.0297125%" y2="100.000127%" id="linearGradient-1">
            <stop stop-color="#00EFD1" offset="0%"></stop>
            <stop stop-color="#00ACEA" offset="100%"></stop>
        </linearGradient>
    </defs>
    <g id="Screen" stroke="none" stroke-width="1" fill="none" fill-rule="evenodd" fill-opacity="0.12">
        <g id="0_Index-iphonex" transform="translate(-155.000000, -640.000000)" fill="#00EFD1" stroke="url(#linearGradient-1)">
            <g id="Group-12" transform="translate(75.000000, 352.000000)">
                <g id="Group-5" transform="translate(80.000000, 288.000000)">
                    <g id="Group-13">
                        <path d="M127.477669,1.41935439 L127.477509,1.41902948 C127.209631,0.873209503 126.546607,0.5 125.797054,0.5 L70.2863278,0.5 C70.2505152,0.5 70.2157823,0.502982641 70.1288006,0.51305034 C70.1216961,0.513872688 70.1216961,0.513872688 70.1144185,0.514712669 C70.0844379,0.518149261 70.0844379,0.518149261 70.0516324,0.521632769 L69.9501287,0.521694889 C69.9087423,0.517308319 69.9087423,0.517308319 69.8719953,0.513065338 C69.854479,0.511041746 69.854479,0.511041746 69.8380895,0.509181351 C69.7795319,0.502596908 69.7451722,0.5 69.7148244,0.5 L14.2029455,0.5 C13.7816315,0.5 13.3746061,0.619103932 13.0512256,0.834239558 L1.15244033,8.75390606 C0.547123667,9.15729749 0.344558063,9.81182601 0.623298936,10.3808385 L12.5236431,34.5819404 C12.791458,35.1276316 13.4532424,35.5 14.2029455,35.5 L69.7148244,35.5 C69.7450669,35.5 69.7786852,35.4974926 69.8400612,35.4908377 C69.8519983,35.4895365 69.8519983,35.4895365 69.8645337,35.4881565 C69.9066809,35.4835147 69.9066809,35.4835147 70.0465723,35.4788437 C70.0803605,35.482108 70.0803605,35.482108 70.1111867,35.4854221 C70.1239506,35.4868158 70.1239506,35.4868158 70.136182,35.488164 C70.2189185,35.4972816 70.2521884,35.5 70.2863278,35.5 L125.797054,35.5 C126.219853,35.5 126.627417,35.3810848 126.949932,35.1657572 L138.847906,27.2468333 C139.452581,26.8445952 139.655491,26.1885555 139.376693,25.6201141 L127.477669,1.41935439 Z M70.000337,36.4792666 C69.9775344,36.4768059 69.9800454,36.476727 70.0460228,36.4746538 C70.0227446,36.4769194 70.0157674,36.4775985 70.000337,36.4792666 Z" id="Path"></path>
                    </g>
                </g>
            </g>
        </g>
    </g>
</svg>