<svg xmlns="http://www.w3.org/2000/svg" width="40" height="40" viewBox="0 0 40 40">
    <path fill="#8e73da" fill-rule="evenodd" d="M10.132 17.204h25.071c1.852 0 3.368 1.652 3.368 3.674v14.02c0 2.02-1.516 3.673-3.368 3.673H10.132c-1.853 0-3.367-1.653-3.367-3.673v-14.02c0-2.022 1.514-3.674 3.367-3.674zm-1.277-15.7c-1.212-.235-2.402.092-3.338.807-.94.713-1.63 1.818-1.847 3.14L1.5 18.768a5.195 5.195 0 0 0 .74 3.644c.39.614.914 1.131 1.532 1.496v-3.03c0-.34.023-.672.066-1a2.58 2.58 0 0 1 .017-.651l2.173-13.32c.098-.612.42-1.122.858-1.454a1.926 1.926 0 0 1 1.548-.379l22.3 4.328c.561.106 1.03.456 1.334.934.305.475.445 1.078.344 1.691l-.254 1.558L9.195 8.131l-1.003 6.14a5.881 5.881 0 0 1 1.94-.332h24.24l.398-2.456a5.23 5.23 0 0 0-.738-3.642c-.658-1.022-1.669-1.776-2.88-2.011L8.855 1.504zm19.34 18.364c-1.809 0-3.275 1.597-3.275 3.572 0 1.972 1.466 3.573 3.275 3.573.812 0 1.557-.322 2.128-.856a3.108 3.108 0 0 0 2.127.856c1.809 0 3.277-1.6 3.277-3.573 0-1.975-1.467-3.572-3.277-3.572-.81 0-1.554.32-2.127.855a3.1 3.1 0 0 0-2.128-.855zm2.401 11.938v2.428h5.498v-2.428h-5.498zm-6.918 0v2.428h5.499v-2.428h-5.5zm-7.129 0v2.428h5.499v-2.428h-5.499zm-6.92 0v2.428h5.498v-2.428H9.628h.001z"/>
</svg>
